<svg width="32" height="32" viewBox="0 0 32 32" fill="none" xmlns="http://www.w3.org/2000/svg">
<path fill-rule="evenodd" clip-rule="evenodd" d="M29.9153 8C28.4127 5.42609 25.6857 4.02087 22.9031 4.10435C21.5675 1.68348 19.0075 0 16.0022 0C12.997 0 10.437 1.65565 9.10138 4.10435C6.33268 4.03478 3.60572 5.42609 2.10312 8C0.600507 10.5739 0.767464 13.6348 2.20051 16C0.753551 18.3652 0.600507 21.4261 2.10312 24C3.60572 26.5739 6.33268 27.9791 9.11529 27.8957C10.4509 30.3165 13.0109 32 16.0162 32C19.0214 32 21.5814 30.3443 22.917 27.8957C25.6857 27.9652 28.4127 26.5739 29.9153 24C31.4179 21.4261 31.2509 18.3652 29.8179 16C31.2649 13.6348 31.4179 10.5739 29.9153 8Z" fill="#079171"/>
<path d="M22.8472 10.5463C23.4562 11.0259 23.5612 11.9083 23.0817 12.5173L16.1021 21.3816C15.8507 21.7008 15.4734 21.8954 15.0676 21.9152C14.6618 21.9349 14.2673 21.7778 13.9861 21.4845L9.73769 17.0524C9.2013 16.4928 9.2201 15.6044 9.77968 15.068C10.3393 14.5316 11.2277 14.5504 11.7641 15.11L14.8954 18.3766L20.8763 10.7808C21.3558 10.1718 22.2382 10.0668 22.8472 10.5463Z" fill="white"/>
</svg>
