<svg width="32" height="32" viewBox="0 0 32 32" fill="none" xmlns="http://www.w3.org/2000/svg">
<g clip-path="url(#clip0_23077_49875)">
<path fill-rule="evenodd" clip-rule="evenodd" d="M15.5335 0.0825092C15.8348 -0.0273403 16.1652 -0.0273403 16.4665 0.0825092L28.7216 4.55099C29.2592 4.74699 29.6169 5.25813 29.6169 5.83029V18.8659C29.6169 20.983 28.6619 22.8605 27.4022 24.4209C26.1402 25.9842 24.4932 27.3301 22.9047 28.4179C21.3083 29.5112 19.7206 30.3779 18.537 30.9699C17.9435 31.2668 17.4475 31.4966 17.0974 31.6533C17.0508 31.6741 17.0037 31.6958 16.9563 31.7177C16.6538 31.857 16.3346 32.004 16 32C15.6665 32.0039 15.3582 31.8622 15.0482 31.7197C14.9998 31.6974 14.9512 31.675 14.9026 31.6533C14.5525 31.4966 14.0565 31.2668 13.463 30.9699C12.2794 30.3779 10.6917 29.5112 9.09532 28.4179C7.50684 27.3301 5.85976 25.9842 4.59775 24.4209C3.33807 22.8605 2.38312 20.983 2.38312 18.8659V5.83029C2.38312 5.25813 2.7408 4.74699 3.27835 4.55099L15.5335 0.0825092Z" fill="#217CF9"/>
<path d="M22.9205 10.4884C23.536 10.973 23.642 11.8648 23.1574 12.4803L16.1036 21.4388C15.8496 21.7614 15.4683 21.9581 15.0581 21.978C14.648 21.998 14.2494 21.8392 13.9652 21.5428L9.67162 17.0636C9.12953 16.4981 9.14853 15.6002 9.71405 15.0581C10.2796 14.516 11.1775 14.535 11.7196 15.1005L14.8841 18.4019L20.9286 10.7253C21.4132 10.1098 22.305 10.0038 22.9205 10.4884Z" fill="white"/>
</g>
<defs>
<clipPath id="clip0_23077_49875">
<rect width="32" height="32" fill="white"/>
</clipPath>
</defs>
</svg>
